HIERARCHY
ROOT hip
{
  OFFSET 0 0 0
  CHANNELS 6 Xposition Yposition Zposition Zrotation Yrotation Xrotation
  JOINT abdomen
  {
    OFFSET 0 20.6881 -0.73152
    CHANNELS 3 Zrotation Xrotation Yrotation
    JOINT chest
    {
      OFFSET 0 11.7043 -0.48768
      CHANNELS 3 Zrotation Xrotation Yrotation
      JOINT neck
      {
        OFFSET 0 22.1894 -2.19456
        CHANNELS 3 Zrotation Xrotation Yrotation
        JOINT head
        {
          OFFSET -0.24384 7.07133 1.2192
          CHANNELS 3 Zrotation Xrotation Yrotation
          JOINT leftEye
          {
            OFFSET 4.14528 8.04674 8.04672
            CHANNELS 3 Zrotation Xrotation Yrotation
            End Site
            {
              OFFSET 1 0 0
            }
          }
          JOINT rightEye
          {
            OFFSET -3.6576 8.04674 8.04672
            CHANNELS 3 Zrotation Xrotation Yrotation
            End Site
            {
              OFFSET 1 0 0
            }
          }
        }
      }
      JOINT rCollar
      {
        OFFSET -2.68224 19.2634 -4.8768
        CHANNELS 3 Zrotation Xrotation Yrotation
        JOINT rShldr
        {
          OFFSET -8.77824 -1.95073 1.46304
          CHANNELS 3 Zrotation Xrotation Yrotation
          JOINT rForeArm
          {
            OFFSET -28.1742 -1.7115 0.48768
            CHANNELS 3 Zrotation Xrotation Yrotation
            JOINT rHand
            {
              OFFSET -22.5879 0.773209 7.07136
              CHANNELS 3 Zrotation Xrotation Yrotation
              JOINT rThumb1
              {
                OFFSET -1.2192 -0.487915 3.41376
                CHANNELS 3 Zrotation Xrotation Yrotation
                JOINT rThumb2
                {
                  OFFSET -3.37035 -0.52449 3.41376
                  CHANNELS 3 Zrotation Xrotation Yrotation
                  End Site
                  {
                    OFFSET -1.78271 -1.18214 1.43049
                  }
                }
              }
              JOINT rIndex1
              {
                OFFSET -7.75947 0.938293 5.60832
                CHANNELS 3 Zrotation Xrotation Yrotation
                JOINT rIndex2
                {
                  OFFSET -2.54057 -0.884171 1.56538
                  CHANNELS 3 Zrotation Xrotation Yrotation
                  End Site
                  {
                    OFFSET -1.62519 -0.234802 1.16502
                  }
                }
              }
              JOINT rMid1
              {
                OFFSET -8.24714 1.18213 3.41376
                CHANNELS 3 Zrotation Xrotation Yrotation
                JOINT rMid2
                {
                  OFFSET -3.10165 -0.590103 1.0647
                  CHANNELS 3 Zrotation Xrotation Yrotation
                  End Site
                  {
                    OFFSET -2.48547 -0.328903 0.83742
                  }
                }
              }
              JOINT rRing1
              {
                OFFSET -8.82822 0.546677 1.51678
                CHANNELS 3 Zrotation Xrotation Yrotation
                JOINT rRing2
                {
                  OFFSET -2.60934 -0.819778 -0.0198488
                  CHANNELS 3 Zrotation Xrotation Yrotation
                  End Site
                  {
                    OFFSET -2.33842 -0.294052 0.168128
                  }
                }
              }
              JOINT rPinky1
              {
                OFFSET -8.27202 -0.0477905 -0.4584
                CHANNELS 3 Zrotation Xrotation Yrotation
                JOINT rPinky2
                {
                  OFFSET -1.82734 -0.647385 -0.700984
                  CHANNELS 3 Zrotation Xrotation Yrotation
                  End Site
                  {
                    OFFSET -1.69225 -0.51767 -0.607171
                  }
                }
              }
            }
          }
        }
      }
      JOINT lCollar
      {
        OFFSET 2.68224 19.2634 -4.8768
        CHANNELS 3 Zrotation Xrotation Yrotation
        JOINT lShldr
        {
          OFFSET 8.77824 -1.95073 1.46304
          CHANNELS 3 Zrotation Xrotation Yrotation
          JOINT lForeArm
          {
            OFFSET 28.1742 -1.7115 0.48768
            CHANNELS 3 Zrotation Xrotation Yrotation
            JOINT lHand
            {
              OFFSET 22.5879 0.773209 7.07136
              CHANNELS 3 Zrotation Xrotation Yrotation
              JOINT lThumb1
              {
                OFFSET 1.2192 -0.487915 3.41376
                CHANNELS 3 Zrotation Xrotation Yrotation
                JOINT lThumb2
                {
                  OFFSET 3.37035 -0.52449 3.41376
                  CHANNELS 3 Zrotation Xrotation Yrotation
                  End Site
                  {
                    OFFSET 1.78271 -1.18214 1.43049
                  }
                }
              }
              JOINT lIndex1
              {
                OFFSET 7.75947 0.938293 5.60832
                CHANNELS 3 Zrotation Xrotation Yrotation
                JOINT lIndex2
                {
                  OFFSET 2.54057 -0.884171 1.56538
                  CHANNELS 3 Zrotation Xrotation Yrotation
                  End Site
                  {
                    OFFSET 1.62519 -0.234802 1.16502
                  }
                }
              }
              JOINT lMid1
              {
                OFFSET 8.24714 1.18213 3.41376
                CHANNELS 3 Zrotation Xrotation Yrotation
                JOINT lMid2
                {
                  OFFSET 3.10165 -0.590103 1.0647
                  CHANNELS 3 Zrotation Xrotation Yrotation
                  End Site
                  {
                    OFFSET 2.48547 -0.328903 0.83742
                  }
                }
              }
              JOINT lRing1
              {
                OFFSET 8.82822 0.546677 1.51678
                CHANNELS 3 Zrotation Xrotation Yrotation
                JOINT lRing2
                {
                  OFFSET 2.60934 -0.819778 -0.0198488
                  CHANNELS 3 Zrotation Xrotation Yrotation
                  End Site
                  {
                    OFFSET 2.33842 -0.294052 0.168128
                  }
                }
              }
              JOINT lPinky1
              {
                OFFSET 8.27202 -0.0477905 -0.4584
                CHANNELS 3 Zrotation Xrotation Yrotation
                JOINT lPinky2
                {
                  OFFSET 1.82734 -0.647385 -0.700984
                  CHANNELS 3 Zrotation Xrotation Yrotation
                  End Site
                  {
                    OFFSET 1.69225 -0.51767 -0.607171
                  }
                }
              }
            }
          }
        }
      }
    }
  }
  JOINT rButtock
  {
    OFFSET -8.77824 4.35084 1.2192
    CHANNELS 3 Zrotation Xrotation Yrotation
    JOINT rThigh
    {
      OFFSET 0 -1.70687 -2.19456
      CHANNELS 3 Zrotation Xrotation Yrotation
      JOINT rShin
      {
        OFFSET 0 -36.8199 0.73152
        CHANNELS 3 Zrotation Xrotation Yrotation
        JOINT rFoot
        {
          OFFSET 0.73152 -45.1104 -5.12064
          CHANNELS 3 Zrotation Xrotation Yrotation
          End Site
          {
            OFFSET -1.1221 -3.69964 12.103
          }
        }
      }
    }
  }
  JOINT lButtock
  {
    OFFSET 8.77824 4.35084 1.2192
    CHANNELS 3 Zrotation Xrotation Yrotation
    JOINT lThigh
    {
      OFFSET 0 -1.70687 -2.19456
      CHANNELS 3 Zrotation Xrotation Yrotation
      JOINT lShin
      {
        OFFSET 0 -36.8199 0.73152
        CHANNELS 3 Zrotation Xrotation Yrotation
        JOINT lFoot
        {
          OFFSET -0.73152 -45.1104 -5.12064
          CHANNELS 3 Zrotation Xrotation Yrotation
          End Site
          {
            OFFSET 1.1221 -3.69964 12.103
          }
        }
      }
    }
  }
}
MOTION
Frames:	6
Frame Time:	0.00833333
83.5012 85.0114 -161.746 0.0 0.0 0.0 0.0256066 -6.1927e-06 0.000728846 0.00706485 8.63003e-06 0.00122383 3.79198e-16 0.0 8.54153e-18 1.1368e-15 3.18055e-15 2.48481e-17 -0.0 0.0 0.0 -0.0 0.0 0.0 2.47161e-16 -3.88251e-19 1.49089e-16 5.945e-15 -4.9075e-16 9.93923e-16 7.02704e-14 -2.20651e-14 1.59028e-14 7.81721e-13 1.35671e-14 0.0 1.84553e-12 -1.15118e-14 4.45278e-14 3.17618e-12 -1.59028e-14 7.63333e-14 1.85069e-12 -1.07344e-14 4.13472e-14 7.73091 5.47488 0.417314 1.84537e-12 -1.18277e-14 4.77083e-14 2.90554 0.965183 0.102902 1.85201e-12 -1.17283e-14 4.53229e-14 10.2786 0.731801 0.0259123 1.84731e-12 -1.11319e-14 5.40694e-14 2.22167 -0.733487 -0.20892 1.50422e-16 -3.88251e-19 -1.49089e-16 2.01755e-15 1.86361e-17 -7.95139e-16 6.79347e-14 2.22639e-14 -2.22639e-14 7.81373e-13 -1.46107e-14 4.13472e-14 1.8461e-12 1.73122e-14 4.45278e-14 3.20361e-12 3.18055e-14 7.95139e-14 1.84154e-12 1.82882e-14 5.08889e-14 -7.73091 5.47488 -0.417314 1.84601e-12 1.76918e-14 4.77083e-14 -2.90554 0.965183 -0.102902 1.84086e-12 1.76918e-14 4.69132e-14 -10.2786 0.731801 -0.0259123 1.84969e-12 1.82882e-14 3.81667e-14 -2.22167 -0.733487 0.20892 -2.03217e-16 0.0 -3.88251e-19 0.512297 -3.13364 -0.0420885 -0.005628 0.123101 -0.0495523 -0.492797 3.00963 0.11736 2.03217e-16 0.0 3.88251e-19 -0.473327 -3.03453 0.0397105 0.005922 -0.0564355 0.0521751 0.492507 3.09005 -0.118956
82.7044 81.7747 -162.125 0.1865 -7.3092 2.1077 2.60835 2.23449 0.955072 0.669024 -1.03954 0.397038 -2.32573 0.35003 -1.00754 2.36845 -3.13366 -1.1635 -0.0 0.0 0.0 -0.0 0.0 0.0 -8.48887e-15 -7.93718e-15 -6.5925e-16 21.013 11.1393 -2.37855 -21.3666 -19.1991 15.0977 0.00651101 -1.79499 -0.251826 9.41787e-11 -1.84112e-10 -1.15012e-10 1.63027e-10 -3.24322e-10 -1.97941e-10 9.41832e-11 -1.84108e-10 -1.15016e-10 7.73091 5.47488 0.417314 9.41793e-11 -1.84114e-10 -1.15007e-10 2.90554 0.965183 0.102902 9.41851e-11 -1.8411e-10 -1.15011e-10 10.2786 0.731801 0.0259123 9.41798e-11 -1.84114e-10 -1.15001e-10 2.22167 -0.733487 -0.20892 -8.61802e-15 -7.94159e-15 -9.60922e-16 -23.1577 13.0987 3.49202 20.976 -18.788 -15.1258 -0.0820621 -6.36194 0.874331 -2.25731e-11 -4.33732e-11 5.60763e-11 -4.10333e-11 -8.34214e-11 9.70899e-11 -2.25762e-11 -4.33715e-11 5.60845e-11 -7.73091 5.47488 -0.417314 -2.25723e-11 -4.33691e-11 5.60797e-11 -2.90554 0.965183 -0.102902 -2.25788e-11 -4.33722e-11 5.6079e-11 -10.2786 0.731801 -0.0259123 -2.25695e-11 -4.33716e-11 5.607e-11 -2.22167 -0.733487 0.20892 -2.03217e-16 0.0 -3.88251e-19 4.29045 -4.45086 0.276565 0.0561941 10.9799 0.151835 -0.64061 -0.782495 -1.36923 2.03217e-16 0.0 3.88251e-19 2.96165 -12.4144 1.65115 -0.0195243 21.0057 -0.232541 0.524782 3.64643 0.424043
82.4652 82.1951 -160.146 -0.0956 -7.8314 2.3595 5.26112 4.62198 1.94938 1.40323 -2.13901 0.812853 -4.77059 0.726299 -2.07457 4.73317 -6.45497 -2.40876 -0.0 0.0 0.0 -0.0 0.0 0.0 -1.86099e-14 -1.83833e-14 -4.3919e-15 44.3139 22.8148 -5.19996 -31.4705 -34.7114 36.5351 -0.00385063 -3.70783 -0.521031 2.1139e-10 -3.72033e-10 -2.62082e-10 3.66029e-10 -6.57111e-10 -4.51171e-10 2.11394e-10 -3.72027e-10 -2.62087e-10 7.73091 5.47488 0.417314 2.11391e-10 -3.72037e-10 -2.62076e-10 2.90554 0.965183 0.102902 2.11396e-10 -3.7203e-10 -2.62081e-10 10.2786 0.731801 0.0259123 2.1139e-10 -3.72039e-10 -2.6207e-10 2.22167 -0.733487 -0.20892 -1.87752e-14 -1.83928e-14 -4.69939e-15 -49.5349 26.8064 7.78554 31.0234 -33.9819 -36.331 0.0474584 -13.0891 1.83613 -3.55216e-11 5.34003e-11 1.57837e-10 -6.63561e-11 7.20353e-11 2.73388e-10 -3.55232e-11 5.34026e-11 1.57848e-10 -7.73091 5.47488 -0.417314 -3.55199e-11 5.34086e-11 1.57841e-10 -2.90554 0.965183 -0.102902 -3.5528e-11 5.34017e-11 1.57841e-10 -10.2786 0.731801 -0.0259123 -3.55181e-11 5.34025e-11 1.57831e-10 -2.22167 -0.733487 0.20892 -2.03217e-16 0.0 -3.88251e-19 8.3379 -5.91743 0.612992 0.0321638 22.5263 0.388269 -1.02848 -4.93055 -3.01903 2.03217e-16 0.0 3.88251e-19 7.23022 -22.281 3.54763 0.257343 43.4328 -0.69317 0.543921 4.25534 0.938513
82.3348 82.6481 -158.181 -0.0159 -7.9328 2.6854 7.54933 6.69601 2.88125 2.03608 -3.11804 1.19023 -6.94027 1.04879 -3.02306 6.71938 -9.38536 -3.53263 -0.0 0.0 0.0 -0.0 0.0 0.0 -2.59609e-14 -2.38108e-14 -2.27593e-15 66.2628 33.1643 -8.37249 -30.2784 -39.2732 61.2035 -0.0279802 -5.38456 -0.758455 2.78845e-10 -5.52312e-10 -3.45124e-10 4.8273e-10 -9.72934e-10 -5.93975e-10 2.78848e-10 -5.52304e-10 -3.45129e-10 7.73091 5.47488 0.417314 2.78847e-10 -5.52318e-10 -3.45117e-10 2.90554 0.965183 0.102902 2.78851e-10 -5.52307e-10 -3.45122e-10 10.2786 0.731801 0.0259123 2.78845e-10 -5.5232e-10 -3.45111e-10 2.22167 -0.733487 -0.20892 -2.61549e-14 -2.3824e-14 -2.58459e-15 -75.365 38.6271 13.1055 30.1373 -38.5187 -60.4754 0.364844 -19.0675 2.75828 -7.14114e-11 -1.30154e-10 1.6814e-10 -1.29507e-10 -2.50328e-10 2.91111e-10 -7.14116e-11 -1.30151e-10 1.68152e-10 -7.73091 5.47488 -0.417314 -7.1409e-11 -1.30143e-10 1.68144e-10 -2.90554 0.965183 -0.102902 -7.14183e-11 -1.30152e-10 1.68143e-10 -10.2786 0.731801 -0.0259123 -7.1408e-11 -1.30151e-10 1.68134e-10 -2.22167 -0.733487 0.20892 -2.03217e-16 0.0 -3.88251e-19 11.891 -7.08453 0.918255 -0.0837949 32.692 0.649099 -1.53042 -8.34325 -4.38823 2.03217e-16 0.0 3.88251e-19 11.6454 -31.0697 5.55755 1.17058 63.1205 -1.67147 0.557594 4.75783 1.51233
82.2482 83.1222 -156.189 0.1649 -7.7566 3.0055 9.08258 7.99301 3.64013 2.38559 -3.79652 1.47006 -8.44929 1.23815 -3.67476 8.03777 -11.3537 -4.31181 -0.0 0.0 0.0 -0.0 0.0 0.0 -2.63872e-14 -1.66915e-14 1.44616e-14 82.4856 40.427 -11.3111 -28.4316 -35.9698 76.9588 -0.0516407 -6.47143 -0.913426 2.2191e-10 -7.13485e-10 -2.68095e-10 3.83678e-10 -1.24634e-09 -4.6071e-10 2.21913e-10 -7.13476e-10 -2.68102e-10 7.73091 5.47488 0.417314 2.21913e-10 -7.13491e-10 -2.68089e-10 2.90554 0.965183 0.102902 2.21917e-10 -7.13479e-10 -2.68094e-10 10.2786 0.731801 0.0259123 2.21909e-10 -7.13493e-10 -2.68083e-10 2.22167 -0.733487 -0.20892 -2.65906e-14 -1.67053e-14 1.41634e-14 -95.5005 46.2945 18.627 28.4317 -35.3536 -75.9314 0.708503 -23.1912 3.45189 -1.64654e-10 -1.01453e-09 -5.02051e-11 -2.87229e-10 -1.76724e-09 -8.76044e-11 -1.64653e-10 -1.01452e-09 -5.01923e-11 -7.73091 5.47488 -0.417314 -1.64652e-10 -1.01452e-09 -5.02019e-11 -2.90554 0.965183 -0.102902 -1.64661e-10 -1.01453e-09 -5.02019e-11 -10.2786 0.731801 -0.0259123 -1.64651e-10 -1.01453e-09 -5.02114e-11 -2.22167 -0.733487 0.20892 -2.03217e-16 0.0 -3.88251e-19 14.1734 -7.50365 1.14135 -0.229969 39.4078 0.87878 -1.82223 -9.94895 -4.98847 2.03217e-16 0.0 3.88251e-19 15.0748 -37.2613 7.23036 3.31004 75.9621 -3.807 0.577253 4.99476 2.23292
82.1768 83.6371 -154.128 0.5027 -7.7367 3.3666 9.66844 8.21666 4.12952 2.3196 -4.06768 1.60788 -9.05461 1.22276 -3.90628 8.55179 -11.9753 -4.56611 -0.0 0.0 0.0 -0.0 0.0 0.0 -1.49358e-14 1.41056e-14 6.32749e-14 89.1881 43.5782 -12.8798 -28.3404 -33.559 82.0789 -0.0592045 -6.72173 -0.949345 -6.2099e-11 -9.55435e-10 1.14437e-10 -1.09377e-10 -1.64193e-09 1.99645e-10 -6.20966e-11 -9.55426e-10 1.1443e-10 7.73091 5.47488 0.417314 -6.20967e-11 -9.55438e-10 1.14442e-10 2.90554 0.965183 0.102902 -6.20926e-11 -9.55429e-10 1.14439e-10 10.2786 0.731801 0.0259123 -6.21013e-11 -9.55437e-10 1.14449e-10 2.22167 -0.733487 -0.20892 -1.5122e-14 1.40961e-14 6.30093e-14 -104.461 48.725 21.9671 28.3402 -32.9537 -80.8754 0.86941 -24.7535 3.73095 -3.87391e-10 -3.37743e-09 -7.20651e-10 -6.60006e-10 -5.80795e-09 -1.25032e-09 -3.8739e-10 -3.37743e-09 -7.2064e-10 -7.73091 5.47488 -0.417314 -3.87389e-10 -3.37742e-09 -7.2065e-10 -2.90554 0.965183 -0.102902 -3.87398e-10 -3.37743e-09 -7.2065e-10 -10.2786 0.731801 -0.0259123 -3.87388e-10 -3.37743e-09 -7.20659e-10 -2.22167 -0.733487 0.20892 -2.03217e-16 0.0 -3.88251e-19 14.6843 -6.89299 1.2258 -0.29176 41.3344 0.982407 -1.64689 -9.07935 -4.44797 2.03217e-16 0.0 3.88251e-19 16.3665 -39.9605 7.97629 4.77248 79.3234 -5.25837 0.627739 4.82701 3.25009
